<svg xmlns="http://www.w3.org/2000/svg" xmlns:xlink="http://www.w3.org/1999/xlink" width="284" zoomAndPan="magnify" viewBox="0 0 212.87999 201.75" height="269" preserveAspectRatio="xMidYMid meet" version="1.0">
  <defs><g/></defs>
  <path fill="#000091" d="M 104.734375 6.9375 C 90.972656 13.742188 94.574219 39.890625 109.289062 39.890625 C 115.058594 39.890625 119.714844 35.179688 121.410156 27.609375 C 124.375 14.402344 114.476562 2.121094 104.734375 6.9375 Z M 110.664062 12.789062 C 113.789062 14.21875 116.0625 20.675781 115.109375 25.414062 C 113.65625 32.636719 109.445312 35.496094 105.714844 31.765625 C 99.574219 25.625 103.730469 9.636719 110.664062 12.789062 Z M 110.664062 12.789062 " fill-opacity="1" fill-rule="nonzero"/>
  <path fill="#000091" d="M 92.21875 63.605469 C 80.148438 75.886719 77.054688 79.300781 77.054688 80.414062 C 77.054688 82.476562 106.851562 112.226562 108.917969 112.226562 C 110.875 112.226562 140.835938 82.132812 140.835938 80.175781 C 140.835938 78.214844 110.796875 48.175781 108.839844 48.175781 C 107.648438 48.175781 104.734375 50.875 92.21875 63.605469 Z M 120.851562 68.027344 C 127.335938 74.5625 132.628906 80.09375 132.628906 80.332031 C 132.628906 80.542969 127.3125 86.050781 120.828125 92.535156 L 109.023438 104.3125 L 97.140625 92.402344 C 90.605469 85.839844 85.3125 80.28125 85.390625 80.066406 C 85.550781 79.617188 108.414062 56.300781 108.8125 56.195312 C 108.96875 56.140625 114.394531 61.460938 120.851562 68.027344 Z M 120.851562 68.027344 " fill-opacity="1" fill-rule="nonzero"/>
  <path fill="#000091" d="M 68.054688 115.164062 C 49.636719 118.871094 41.195312 131.257812 50.773438 140.546875 C 56.703125 146.34375 65.9375 146.132812 84.066406 139.804688 C 90.152344 137.6875 101.824219 132.925781 106.246094 130.753906 L 108.734375 129.535156 L 116.832031 133.03125 C 151.289062 147.824219 167.457031 148.511719 170.210938 135.28125 C 174.046875 116.753906 143.109375 107.886719 115.640625 119.664062 C 108.308594 122.8125 109.339844 122.761719 103.570312 120.167969 C 91.292969 114.636719 79.171875 112.914062 68.054688 115.164062 Z M 86.582031 121.464844 C 89.808594 122.097656 94.945312 123.5 100.289062 125.25 C 101.269531 125.566406 99.496094 127.578125 98.226562 127.578125 C 97.75 127.578125 94.96875 128.558594 92.085938 129.722656 C 69.40625 139.011719 56.859375 140.519531 53.871094 134.300781 C 49.980469 126.203125 70.144531 118.289062 86.582031 121.464844 Z M 146.921875 121.488281 C 159.203125 123.632812 166.503906 128.796875 164.414062 133.851562 C 161.847656 140.070312 151.660156 139.515625 132.101562 132.078125 C 128.476562 130.699219 123.710938 128.925781 121.515625 128.160156 C 115.71875 126.09375 116.035156 125.617188 124.957031 123.023438 C 133.265625 120.617188 139.484375 120.191406 146.921875 121.488281 Z M 146.921875 121.488281 " fill-opacity="1" fill-rule="nonzero"/>
  <g fill="#000091" fill-opacity="1"><g transform="translate(16.822335, 187.043241)"><g><path d="M 13.109375 -23.265625 C 14.828125 -23.265625 16.515625 -22.910156 18.171875 -22.203125 C 19.828125 -21.503906 21.238281 -20.5625 22.40625 -19.375 L 19.015625 -15.359375 C 18.265625 -16.273438 17.367188 -17.003906 16.328125 -17.546875 C 15.285156 -18.085938 14.25 -18.359375 13.21875 -18.359375 C 11.394531 -18.359375 9.863281 -17.710938 8.625 -16.421875 C 7.394531 -15.140625 6.78125 -13.554688 6.78125 -11.671875 C 6.78125 -9.734375 7.394531 -8.113281 8.625 -6.8125 C 9.863281 -5.519531 11.394531 -4.875 13.21875 -4.875 C 14.1875 -4.875 15.191406 -5.113281 16.234375 -5.59375 C 17.273438 -6.082031 18.203125 -6.742188 19.015625 -7.578125 L 22.4375 -3.953125 C 21.1875 -2.679688 19.707031 -1.660156 18 -0.890625 C 16.300781 -0.117188 14.609375 0.265625 12.921875 0.265625 C 9.453125 0.265625 6.5625 -0.863281 4.25 -3.125 C 1.945312 -5.394531 0.796875 -8.21875 0.796875 -11.59375 C 0.796875 -14.914062 1.96875 -17.691406 4.3125 -19.921875 C 6.664062 -22.148438 9.597656 -23.265625 13.109375 -23.265625 Z M 13.109375 -23.265625 "/></g></g></g>
  <g fill="#000091" fill-opacity="1"><g transform="translate(44.565819, 187.043241)"><g><path d="M 20.359375 -18.453125 L 8.171875 -18.453125 L 8.171875 -13.875 L 19.171875 -13.875 L 19.171875 -9.265625 L 8.171875 -9.265625 L 8.171875 -4.609375 L 20.734375 -4.609375 L 20.734375 0 L 2.3125 0 L 2.3125 -23.0625 L 20.359375 -23.0625 Z M 20.359375 -18.453125 "/></g></g></g>
  <g fill="#000091" fill-opacity="1"><g transform="translate(71.71625, 187.043241)"><g><path d="M 11.171875 -23.328125 C 14.617188 -23.328125 17.648438 -22.472656 20.265625 -20.765625 L 18.0625 -16.1875 C 16.851562 -16.882812 15.554688 -17.457031 14.171875 -17.90625 C 12.785156 -18.351562 11.617188 -18.578125 10.671875 -18.578125 C 8.984375 -18.578125 8.140625 -18.019531 8.140625 -16.90625 C 8.140625 -16.175781 8.554688 -15.59375 9.390625 -15.15625 C 10.222656 -14.71875 11.238281 -14.335938 12.4375 -14.015625 C 13.632812 -13.703125 14.832031 -13.316406 16.03125 -12.859375 C 17.226562 -12.410156 18.242188 -11.679688 19.078125 -10.671875 C 19.910156 -9.660156 20.328125 -8.390625 20.328125 -6.859375 C 20.328125 -4.640625 19.457031 -2.90625 17.71875 -1.65625 C 15.988281 -0.414062 13.785156 0.203125 11.109375 0.203125 C 9.191406 0.203125 7.300781 -0.125 5.4375 -0.78125 C 3.570312 -1.445312 1.945312 -2.351562 0.5625 -3.5 L 2.828125 -8 C 3.992188 -6.988281 5.367188 -6.160156 6.953125 -5.515625 C 8.535156 -4.867188 9.941406 -4.546875 11.171875 -4.546875 C 12.117188 -4.546875 12.851562 -4.710938 13.375 -5.046875 C 13.90625 -5.390625 14.171875 -5.894531 14.171875 -6.5625 C 14.171875 -7.195312 13.867188 -7.726562 13.265625 -8.15625 C 12.660156 -8.582031 11.90625 -8.898438 11 -9.109375 C 10.101562 -9.316406 9.125 -9.597656 8.0625 -9.953125 C 7.007812 -10.304688 6.035156 -10.691406 5.140625 -11.109375 C 4.242188 -11.523438 3.492188 -12.1875 2.890625 -13.09375 C 2.285156 -14.007812 1.984375 -15.101562 1.984375 -16.375 C 1.984375 -18.488281 2.820312 -20.175781 4.5 -21.4375 C 6.175781 -22.695312 8.398438 -23.328125 11.171875 -23.328125 Z M 11.171875 -23.328125 "/></g></g></g>
  <g fill="#000091" fill-opacity="1"><g transform="translate(97.878252, 187.043241)"><g><path d="M 8.171875 0 L 2.3125 0 L 2.3125 -23.0625 L 8.171875 -23.0625 Z M 8.171875 0 "/></g></g></g>
  <g fill="#000091" fill-opacity="1"><g transform="translate(114.349376, 187.043241)"><g><path d="M 21.09375 -19.3125 L 8.765625 -4.640625 L 21.28125 -4.640625 L 21.28125 0 L 0.921875 0 L 0.921875 -3.75 L 13.28125 -18.421875 L 1.34375 -18.421875 L 1.34375 -23.0625 L 21.09375 -23.0625 Z M 21.09375 -19.3125 "/></g></g></g>
  <g fill="#000091" fill-opacity="1"><g transform="translate(141.532759, 187.043241)"><g><path d="M 20.359375 -18.453125 L 8.171875 -18.453125 L 8.171875 -13.875 L 19.171875 -13.875 L 19.171875 -9.265625 L 8.171875 -9.265625 L 8.171875 -4.609375 L 20.734375 -4.609375 L 20.734375 0 L 2.3125 0 L 2.3125 -23.0625 L 20.359375 -23.0625 Z M 20.359375 -18.453125 "/></g></g></g>
  <g fill="#000091" fill-opacity="1"><g transform="translate(168.68319, 187.043241)"><g><path d="M 23.59375 0 L 18.421875 0 L 7.8125 -14.203125 L 7.8125 0 L 2.3125 0 L 2.3125 -23.0625 L 7.484375 -23.0625 L 18.125 -8.828125 L 18.125 -23.0625 L 23.59375 -23.0625 Z M 23.59375 0 "/></g></g></g>
</svg>
