 <svg  version="1.0" xmlns="http://www.w3.org/2000/svg"  width="242.000000pt" height="283.000000pt" viewBox="0 0 242.000000 283.000000"  preserveAspectRatio="xMidYMid meet">  <g transform="translate(0.000000,283.000000) scale(0.050000,-0.050000)" fill="#00bf63" stroke="none"> <path d="M2326 5398 c-520 -257 -384 -1245 172 -1245 218 0 394 178 458 464 112 499 -262 963 -630 781z m224 -221 c118 -54 204 -298 168 -477 -55 -273 -214 -381 -355 -240 -232 232 -75 836 187 717z"/> <path d="M1853 3257 c-456 -464 -573 -593 -573 -635 0 -78 1126 -1202 1204 -1202 74 0 1206 1137 1206 1211 0 74 -1135 1209 -1209 1209 -45 0 -155 -102 -628 -583z m1082 -167 c245 -247 445 -456 445 -465 0 -8 -201 -216 -446 -461 l-446 -445 -449 450 c-247 248 -447 458 -444 466 6 17 870 898 885 902 6 2 211 -199 455 -447z"/> <path d="M940 1309 c-696 -140 -1015 -608 -653 -959 224 -219 573 -211 1258 28 230 80 671 260 838 342 l94 46 306 -132 c1302 -559 1913 -585 2017 -85 145 700 -1024 1035 -2062 590 -277 -119 -238 -117 -456 -19 -464 209 -922 274 -1342 189z m700 -238 c122 -24 316 -77 518 -143 37 -12 -30 -88 -78 -88 -18 0 -123 -37 -232 -81 -857 -351 -1331 -408 -1444 -173 -147 306 615 605 1236 485z m2280 -1 c464 -81 740 -276 661 -467 -97 -235 -482 -214 -1221 67 -137 52 -317 119 -400 148 -219 78 -207 96 130 194 314 91 549 107 830 58z"/> </g> </svg> 